<svg xmlns="http://www.w3.org/2000/svg" xml:space="preserve" viewBox="0 0 736 736"><path d="M411.816 305.228c2.272 7.088 3.333 13.974 3.72 20.975.408 7.4 3.772 14.089 5.045 21.31 2.893 16.406 3.589 32.954 4.363 49.543.281 6.018 2.853 11.899 4.03 17.91 1.744 8.905-6.159 18.28-15.181 18.295-.843.001-1.67-.146-1.99-1.136 3.546-6.35 3.85-8.476 1.802-14.815-.567 2.199-.994 3.84-1.411 5.483-.337 1.324-.711 2.825-2.37 2.757-1.822-.075-2.359-1.636-2.579-3.185-.904-6.362-.927-12.748 1.92-18.613 3.889-8.014 3.327-16.315 1.371-24.364-2.74-11.274-7.212-22.11-8.731-33.724-.119-.907-.83-1.735-1.712-3.483-2.738 5.409-1.99 10.257-1.184 15.003 1.473 8.67 3.21 17.297 3.4 26.128.074 3.489.408 6.952.692 10.422.4 4.905 2.902 9.584-1.033 15.031-2.663 3.688-2.875 10.022-2.335 14.971 1.202 11-1.1 21.54-2.493 32.234-1.555 11.946-1.572 23.912.395 35.79 2.056 12.413-.551 24.549-1.886 36.724-.832 7.587.548 13.655 6.547 18.707 5.275 4.442 4.129 10.565-.066 15.821-5.896 7.39-12.811 5.29-19.953 4.324-1.848-.25-2.978-1.404-3.62-3.062-1.027-2.647-2.067-5.344-1.78-8.232.77-7.732.427-15.543 2.486-23.194 1.789-6.648-.113-13.265-2.101-19.598-2.856-9.1-4.629-18.208-4.654-27.851-.02-7.862-2.549-15.138-11.398-17.859-2.709-.832-3.548-2.455-2.84-5.332 1.28-5.196.057-10.632 1.235-15.895.35-1.564-.002-3.318-2.22-4.787a22.56 22.56 0 0 0-1.864 11.442c.752 7.912-1.462 13.78-9.034 17.602-3.735 1.885-4.25 6.662-3.783 10.286 1.576 12.24-3.372 23.161-6.17 34.507-1.106 4.483-1.32 8.782-.276 13.286 1.918 8.273 2.42 16.728 2.112 25.178-.25 6.873-2.5 7.606-8.993 9.511-8.554 2.51-13.093-2.488-18.129-7.224-2.57-2.418-2.198-10.16 1.274-12.836 7.597-5.855 8.364-13.574 7.088-21.979-2.282-15.034-3.278-29.942-.125-45.084 1.279-6.141 1.796-9.884-7.17-11.285-3.332-.521-4.87-2.921-4.573-6.574.942-11.597 1.852-23.189 3.385-34.733.873-6.578 1.108-13.239 1.696-19.857.268-3.02-1.011-4.877-3.967-5.292-4.138-.58-4.571-2.57-3.327-6.264 6.176-18.324 9.02-37.374 11.766-57.154-4.248 5.622-5.586 12.036-8.168 17.767-3.407 7.565-8.404 14.368-10.508 22.569-1.629 6.344-2.678 12.471-.843 19.067 1.573 5.656 1.01 11.57-.685 17.263-.563 1.89-.986 4.425-3.57 3.998-2.411-.399-1.615-2.903-1.748-4.624-.102-1.318-.02-2.65-.418-3.994-2.33 4.782-4.439 9.572-.115 14.73-3.557 2.3-6.209-.154-8.422-1.373-5.622-3.097-9.178-12.656-6.225-18.36 7.935-15.327 9.615-32.36 14.114-48.61 1.734-6.265 3.545-12.52 6.243-18.37 7.81-16.935 12.096-35.206 20.14-52.047 3.937-8.24 10.137-13.207 18.916-15.488 3.823-.993 7.45-2.803 11.08-4.434.765-.345 1.364-1.455 1.68-2.34 2.025-5.676-1.003-14.383-5.89-18.014-3.703-2.752-5.945-6.657-7.38-11-.483-1.465-.73-3.586.375-4.286 5.206-3.293 3.176-8.303 2.8-12.45-.787-8.673 1.594-15.801 7.109-22.515 6.33-7.706 23.625-11.414 32.941-7.657 11.619 4.686 16.024 14.21 19.353 24.893.7 2.25.35 4.559-.419 6.862-1.153 3.454-2.012 7.007-3.103 10.898 4.7 1.324 4.517 4.717 2.453 7.633-2.725 3.848-3.09 9.925-9.42 10.749-.648.084-1.336 1.439-1.64 2.329-1.446 4.24-2.753 8.53-4.133 12.793-.967 2.984-.236 5.05 2.766 6.499 4.169 2.013 8.244 4.245 12.24 6.588 8.51 4.993 11.762 13.204 13.376 22.367.491 2.786 1.057 5.559 1.722 8.729"/></svg>