<svg xmlns="http://www.w3.org/2000/svg" width="152" height="406"><path d="M84.55 25.71c7.704 7.2 11.169 19.499 11.766 29.77q.078 2.416.121 4.833l.068 2.318C96.484 67.872 95.455 70.85 92 75c-5.263 4-5.263 4-8 4 4.894 6.065 11.057 7.2 18.34 9.229 6.072 1.83 9.302 3.287 12.66 8.771 1.772 5.123 2.305 9.872 2.344 15.25l.044 2.35c.046 2.467.08 4.933.112 7.4.177 13.64 1.187 26.618 3.574 40.082 1.117 6.513 1.41 13.013 1.739 19.606.625 10.96 2.056 21.422 4.598 32.104 1.66 7.211 2.522 13.628-1.099 20.333L124 237l-1.527 1.922c-2.955 3.613-2.955 3.613-4.473 5.078h-2q.174-2.157.375-4.312c.07-.801.14-1.602.21-2.426C117 235 117 235 119 232c.451-2.05.451-2.05.625-4.187L120 224h-2l-1 7-4 1 .235-2.066c1.72-16.748.275-29.597-6.036-45.22-4.113-10.276-4.835-20.913-5.824-31.839l-.406-4.344q-.492-5.265-.969-10.531a852 852 0 0 0-2 7.063l-.578 1.99c-1.887 6.838-1.997 12.425.766 19.072l1.378 3.434a525 525 0 0 0 2.774 6.539c10.83 26.04 7.15 54.866 3.207 82.02-2.216 14.605-2.216 14.605-1.899 29.312 1.915 19.44-.634 38.23-3.513 57.43-3.64 18.154-3.64 18.154-.248 35.445 2.016 2.709 2.016 2.709 4.363 4.82C106 387 106 387 106 391c-2.376 1.188-3.851 1.13-6.5 1.133l-2.687.004-2.813-.012-2.812.012-2.688-.004-2.469-.004C84 392 84 392 82 391c-.163-3.923-.052-7.208 1-11 1.035-3.733 1.075-7.12 1-11l1-4c1.043-10.156-1.487-20.161-3.437-30.062a2497 2497 0 0 1-1.468-7.602q-.45-2.348-.914-4.691c-1.687-8.725-2.334-17.245-2.103-26.122q.046-2.715.088-5.428l.044-2.832C77.485 268.33 76.003 249.527 72 230h-1c-4.22 19.091-5.321 37.485-5.375 57-.058 19.214-1.632 37.225-5.667 56.006l-.462 2.154-.446 2.072c-2.427 11.854-.954 23.784 1.54 35.495.502 2.784.559 5.451.41 8.273-2.376 1.188-3.851 1.13-6.5 1.133l-2.687.004-2.813-.012-2.812.012-2.688-.004-2.469-.004C39 392 39 392 37 391c.287-4.742 2.543-7.107 5.625-10.45 4.073-4.593 2.868-11.608 2.624-17.395-.7-8.886-2.293-17.705-3.723-26.498-1.807-11.129-2.689-21.81-2.651-33.094l-.012-3.487c.006-5.341.133-10.586.692-15.9.472-4.66.318-8.92-.305-13.551l-.277-2.272c-.762-6.108-1.655-12.199-2.535-18.29C32.752 224.51 31.022 197.05 42 173c5.599-12.649 5.386-20.937 1-34-.973 6.25-1.905 12.478-2.402 18.785-.984 12.309-2.843 24.097-8.07 35.399-5.536 12.35-3.49 25.625-2.528 38.816l-4-1-1-7h-2c1.134 6.524 1.134 6.524 3.125 12.813 1.01 2.524 1.029 4.493.875 7.187-3.617-1.47-5.366-3.398-7.687-6.5l-1.825-2.406c-4.06-5.711-3.075-13.34-2.488-20.094.492-2.766 1.172-5.469 1.875-8.187 2.396-9.338 2.86-18.653 3.404-28.25.467-7.855 1.296-15.34 3.037-23.008 1.492-7.754 1.755-15.532 1.895-23.407l.044-2.395c.057-3.29.112-6.58.146-9.87.242-21.099.242-21.099 6.119-27.723 4.216-3.041 9.236-4.282 14.168-5.722a421 421 0 0 0 5.636-1.692c.826-.24 1.652-.48 2.503-.729C56.43 82.798 57.47 81.397 59 79l-2.187-.187C52.068 77.442 49.663 73.995 47 70a89 89 0 0 1-.375-8.312l.005-2.43c.222-10.936 3.05-22.72 10.077-31.356 6.696-5.555 20.43-7.164 27.844-2.191"/><path fill="#0f0f0f" d="M109 92c4 2 4 2 6 5l-1 4z"/></svg>