<svg xmlns="http://www.w3.org/2000/svg" xml:space="preserve" viewBox="0 0 448 448"><path d="M245.348 392.284c-.014 3.745.074 7.068-.035 10.385-.068 2.061.7 3.527 2.389 4.605.842.538 1.724 1.037 2.482 1.678 2.3 1.944 6.715 2.827 5.738 6.667-1.041 4.09-5.442 2.92-8.573 3.26-2.635.288-5.328.106-7.993.044-7.487-.173-9.98-3.198-9.148-10.815 1.373-12.568 2.957-25.107 2.535-37.819-.238-7.158-.446-14.246-1.617-21.363-1.505-9.147.19-18.257 1.999-27.247 1.011-5.028.99-9.88-.82-14.732-2.311-6.19-2.016-12.775-2.578-19.21-1.225-14.03-2.25-28.078-4.045-42.16-.446 5.324-.916 10.647-1.336 15.974-1.059 13.435-.334 27.328-3.653 40.176-3.11 12.036-.746 22.98.348 34.436.409 4.286.565 8.73-.085 12.961-2.628 17.102-2.206 34.125.104 51.212.55 4.066 1.128 8.234.57 12.429-.465 3.485-2.307 5.564-5.724 5.881-5.31.493-10.645.624-15.948-.233-1.682-.271-3.408-.625-3.95-2.522-.612-2.141.706-3.804 2.352-4.502 11.604-4.923 9.28-14.607 7.288-23.277-2.526-10.995-7.698-21.258-10.146-32.365-3.073-13.946-4.21-27.617-.453-41.88 2.531-9.61.446-19.878-1.774-29.675-3.58-15.795-6.275-31.765-5.458-47.958.628-12.422 2.557-24.792 4.223-37.142 1.168-8.655.985-17.306.204-25.902-.593-6.517-.114-13.236-2.71-20.882-2.386 7.592-5.727 13.467-5.343 20.66.633 11.86-2.298 23.41-6.8 34.043-4.952 11.694-3.374 22.91-1.53 34.498.385 2.421 1.139 4.848-.23 7.504-3.745-.381-3.859-4.172-6.373-6.571-.252 7.653 4.153 12.793 8.246 18.035-3.257 1.723-5.124.066-6.547-1.262-6.58-6.145-11.488-12.833-11.375-22.8.154-13.653 1.038-27.272 1.183-40.918.042-3.976-.071-8.201 1.181-11.87 3.665-10.73 3.396-21.913 4.7-32.913.038-.33-.02-.683.069-.996 3.157-11.034 4.212-22.429 6.047-33.701 1.761-10.82 7.758-18.42 19.17-21.151 7.07-1.693 12.654-6.604 18.567-10.584 2.328-1.566 2.96-3.866 1.415-7.314-2.911-6.5-7.049-13.03-4.372-20.886.51-1.496.104-3.309.09-4.975-.098-12.928 11.816-21.16 24.275-16.767 9.032 3.185 10.73 6.662 11.636 16.212.939 9.908.102 19.062-4.802 27.831-1.488 2.66.35 4.933 2.624 6.253 7.158 4.157 13.746 9.176 22.034 11.483 11.446 3.187 15.702 12.964 16.484 23.381.867 11.56 4.247 22.5 5.96 33.806.1.658.334 1.308.343 1.965.294 19.614 6.737 38.58 6.021 58.323-.332 9.15.543 18.364-.157 27.47-.683 8.891-6.515 15.011-13.683 19.817-.514.344-1.26.388-1.91.464-.289.034-.608-.202-1.681-.6 3.285-5.684 8.55-10.577 7.923-18.003-2.411 1.75-2.51 5.395-5.745 6.1-2.019-1.32-1.459-3.378-1.156-4.999 1.13-6.038.702-12.323 2.913-18.183.948-2.51.22-4.865-.62-7.278-4.278-12.275-8.614-24.616-9.946-37.582-.881-8.585-.534-17.273-4.371-25.315-.415-.87-.706-1.8-1.543-3.965-2.3 16.492-4.676 31.757-2.288 46.945 4.588 29.183 5.998 58.063-1.342 87.101-2.965 11.729-3.24 23.753-.091 36.02 2.827 11.015.686 22.454-1.773 33.597-2.595 11.757-7.653 22.698-10.894 34.23-.224.797-.32 1.63-.495 2.87"/></svg>